<?xml version="1.0" encoding="UTF-8" standalone="no"?>
<!-- Generator: Adobe Illustrator 16.0.3, SVG Export Plug-In . SVG Version: 6.00 Build 0)  -->

<svg
   version="1.1"
   x="0px"
   y="0px"
   width="90"
   height="380"
   viewBox="0 0 90 380"
   enable-background="new 0 0 90 380"
   xml:space="preserve"
   id="svg2203"
   xmlns="http://www.w3.org/2000/svg"
   xmlns:svg="http://www.w3.org/2000/svg"><defs
   id="defs2207" />
<g
   id="faceplate">
	<rect
   id="background"
   fill="#e6e6e6"
   width="90"
   height="380"
   x="0"
   y="0" />
	<path
   fill="#6d6e70"
   d="M 80.309,240.4085 H 55.454 c -1.627,0 -2.958,1.331 -2.958,2.958 v 98.935 c 0,1.627 1.331,2.959 2.958,2.959 h 24.854 c 1.628,0 2.96,-1.332 2.96,-2.959 v -98.935 c 0.001,-1.627 -1.331,-2.958 -2.959,-2.958 z"
   id="path1981" />
	<g
   id="g1985">
		<rect
   x="4.0040002"
   y="351.271"
   fill="#bbbdbf"
   width="79.825996"
   height="2.0880001"
   id="rect1983" />
	</g>
	<g
   id="g1989">
		<rect
   x="4.0040002"
   y="232.31"
   fill="#bbbdbf"
   width="79.825996"
   height="2.0880001"
   id="rect1987" />
	</g>
	<g
   id="g1999">
		<line
   fill="#bbbdbf"
   x1="0"
   y1="24.375"
   x2="90.041"
   y2="24.375"
   id="line1991" />
		<rect
   y="23.853001"
   fill="#bbbdbf"
   width="88.883003"
   height="1.044"
   id="rect1993"
   x="0" />
		<line
   fill="#bbbdbf"
   x1="0"
   y1="32.083"
   x2="90.041"
   y2="32.083"
   id="line1995" />
		<rect
   y="31.562"
   fill="#bbbdbf"
   width="88.883003"
   height="1.044"
   id="rect1997"
   x="0" />
	</g>
	
	
	
	
	
	
	
	
	
	
	
	
	
	
<text
   xml:space="preserve"
   style="font-size:10.6667px;font-family:'Droid Sans Mono for Powerline';-inkscape-font-specification:'Droid Sans Mono for Powerline, Normal';fill:#1a1a1a"
   x="0.25747672"
   y="19.440449"
   id="text2307"><tspan
     id="tspan2305"
     x="0.25747672"
     y="19.440449">Raf'S CV Tools</tspan></text></g>
<g
   id="decoupe"
   display="none">
	
		<path
   display="inline"
   fill="none"
   stroke="#ed312b"
   stroke-width="0.2835"
   stroke-linecap="round"
   stroke-linejoin="round"
   stroke-miterlimit="10"
   d="m 17.457,371.438 c 0,2.613 2.121,4.734 4.737,4.734 2.614,0 4.734,-2.121 4.734,-4.734 0,-2.616 -2.121,-4.734 -4.734,-4.734 -2.616,-0.001 -4.737,2.117 -4.737,4.734"
   id="path2150" />
	
		<path
   display="inline"
   fill="none"
   stroke="#ed312b"
   stroke-width="0.2835"
   stroke-linecap="round"
   stroke-linejoin="round"
   stroke-miterlimit="10"
   d="m 17.457,8.94 c 0,2.616 2.121,4.735 4.737,4.735 2.614,0 4.734,-2.12 4.734,-4.735 0,-2.614 -2.121,-4.734 -4.734,-4.734 -2.616,0 -4.737,2.12 -4.737,4.734"
   id="path2152" />
	
		<polyline
   display="inline"
   fill="none"
   stroke="#ed312b"
   stroke-width="0.2835"
   stroke-linecap="round"
   stroke-linejoin="round"
   stroke-miterlimit="10"
   points="   0,380.314 0,0.062 88.774,0.062 88.774,380.314 0,380.314  "
   id="polyline2154" />
	
		<path
   display="inline"
   fill="none"
   stroke="#ed312b"
   stroke-width="0.2835"
   stroke-linecap="round"
   stroke-linejoin="round"
   stroke-miterlimit="10"
   d="m 11.575,328.826 c 0,5.147 4.174,9.319 9.321,9.319 5.147,0 9.321,-4.172 9.321,-9.319 0,-5.148 -4.174,-9.322 -9.321,-9.322 -5.147,0 -9.321,4.174 -9.321,9.322"
   id="path2156" />
	
		<path
   display="inline"
   fill="none"
   stroke="#ed312b"
   stroke-width="0.2835"
   stroke-linecap="round"
   stroke-linejoin="round"
   stroke-miterlimit="10"
   d="m 11.575,293.107 c 0,5.148 4.174,9.32 9.321,9.32 5.147,0 9.321,-4.172 9.321,-9.32 0,-5.147 -4.174,-9.321 -9.321,-9.321 -5.147,0 -9.321,4.174 -9.321,9.321"
   id="path2158" />
	
		<path
   display="inline"
   fill="none"
   stroke="#ed312b"
   stroke-width="0.2835"
   stroke-linecap="round"
   stroke-linejoin="round"
   stroke-miterlimit="10"
   d="m 11.575,257.391 c 0,5.147 4.174,9.321 9.321,9.321 5.147,0 9.321,-4.174 9.321,-9.321 0,-5.146 -4.174,-9.322 -9.321,-9.322 -5.147,-10e-4 -9.321,4.175 -9.321,9.322"
   id="path2160" />
	
		<path
   display="inline"
   fill="none"
   stroke="#ed312b"
   stroke-width="0.2835"
   stroke-linecap="round"
   stroke-linejoin="round"
   stroke-miterlimit="10"
   d="m 58.565,257.391 c 0,5.147 4.175,9.321 9.322,9.321 5.148,0 9.322,-4.174 9.322,-9.321 0,-5.146 -4.174,-9.322 -9.322,-9.322 -5.147,-10e-4 -9.322,4.175 -9.322,9.322"
   id="path2162" />
	
		<path
   display="inline"
   fill="none"
   stroke="#ed312b"
   stroke-width="0.2835"
   stroke-linecap="round"
   stroke-linejoin="round"
   stroke-miterlimit="10"
   d="m 58.565,293.107 c 0,5.148 4.175,9.32 9.322,9.32 5.148,0 9.322,-4.172 9.322,-9.32 0,-5.147 -4.174,-9.321 -9.322,-9.321 -5.147,0 -9.322,4.174 -9.322,9.321"
   id="path2164" />
	
		<path
   display="inline"
   fill="none"
   stroke="#ed312b"
   stroke-width="0.2835"
   stroke-linecap="round"
   stroke-linejoin="round"
   stroke-miterlimit="10"
   d="m 58.565,328.826 c 0,5.147 4.175,9.319 9.322,9.319 5.148,0 9.322,-4.172 9.322,-9.319 0,-5.148 -4.174,-9.322 -9.322,-9.322 -5.147,0 -9.322,4.174 -9.322,9.322"
   id="path2166" />
	
		<path
   display="inline"
   fill="none"
   stroke="#ed312b"
   stroke-width="0.2835"
   stroke-linecap="round"
   stroke-linejoin="round"
   stroke-miterlimit="10"
   d="m 39.953,328.826 c 0,2.45 1.989,4.438 4.439,4.438 2.45,0 4.438,-1.988 4.438,-4.438 0,-2.453 -1.987,-4.439 -4.438,-4.439 -2.451,0 -4.439,1.986 -4.439,4.439"
   id="path2168" />
	
		<path
   display="inline"
   fill="none"
   stroke="#ed312b"
   stroke-width="0.2835"
   stroke-linecap="round"
   stroke-linejoin="round"
   stroke-miterlimit="10"
   d="m 39.953,293.107 c 0,2.451 1.989,4.439 4.439,4.439 2.45,0 4.438,-1.988 4.438,-4.439 0,-2.45 -1.987,-4.438 -4.438,-4.438 -2.451,0 -4.439,1.988 -4.439,4.438"
   id="path2170" />
	
		<path
   display="inline"
   fill="none"
   stroke="#ed312b"
   stroke-width="0.2835"
   stroke-linecap="round"
   stroke-linejoin="round"
   stroke-miterlimit="10"
   d="m 39.953,257.391 c 0,2.452 1.989,4.438 4.439,4.438 2.45,0 4.438,-1.986 4.438,-4.438 0,-2.451 -1.987,-4.439 -4.438,-4.439 -2.451,0 -4.439,1.987 -4.439,4.439"
   id="path2172" />
	
		<path
   display="inline"
   fill="none"
   stroke="#ed312b"
   stroke-width="0.2835"
   stroke-linecap="round"
   stroke-linejoin="round"
   stroke-miterlimit="10"
   d="m 48.328,193.532 c 0,6.128 4.969,11.097 11.099,11.097 6.127,0 11.094,-4.969 11.094,-11.097 0,-6.128 -4.967,-11.097 -11.094,-11.097 -6.13,0.001 -11.099,4.969 -11.099,11.097"
   id="path2174" />
	
		<path
   display="inline"
   fill="none"
   stroke="#ed312b"
   stroke-width="0.2835"
   stroke-linecap="round"
   stroke-linejoin="round"
   stroke-miterlimit="10"
   d="m 48.328,127.75 c 0,6.13 4.969,11.098 11.099,11.098 6.127,0 11.094,-4.968 11.094,-11.098 0,-6.128 -4.967,-11.096 -11.094,-11.096 -6.13,0 -11.099,4.968 -11.099,11.096"
   id="path2176" />
	
		<path
   display="inline"
   fill="none"
   stroke="#ed312b"
   stroke-width="0.2835"
   stroke-linecap="round"
   stroke-linejoin="round"
   stroke-miterlimit="10"
   d="m 48.328,61.968 c 0,6.129 4.969,11.097 11.099,11.097 6.127,0 11.094,-4.968 11.094,-11.097 0,-6.128 -4.967,-11.097 -11.094,-11.097 -6.13,0 -11.099,4.969 -11.099,11.097"
   id="path2178" />
	
		<polyline
   display="inline"
   fill="none"
   stroke="#ed312b"
   stroke-width="0.2835"
   stroke-linecap="round"
   stroke-linejoin="round"
   stroke-miterlimit="10"
   points="   9.118,72.917 9.118,51.02 23.323,51.02 23.323,72.917 9.118,72.917  "
   id="polyline2180" />
	
		<polyline
   display="inline"
   fill="none"
   stroke="#ed312b"
   stroke-width="0.2835"
   stroke-linecap="round"
   stroke-linejoin="round"
   stroke-miterlimit="10"
   points="   9.118,138.7 9.118,116.802 23.323,116.802 23.323,138.7 9.118,138.7  "
   id="polyline2182" />
	
		<polyline
   display="inline"
   fill="none"
   stroke="#ed312b"
   stroke-width="0.2835"
   stroke-linecap="round"
   stroke-linejoin="round"
   stroke-miterlimit="10"
   points="   9.118,204.48 9.118,182.583 23.323,182.583 23.323,204.48 9.118,204.48  "
   id="polyline2184" />
</g>
<g
   id="widgets"
   display="none">
	
		<rect
   id="PJ301_3_"
   x="9.3959999"
   y="245.89101"
   display="inline"
   fill="none"
   stroke="#000000"
   stroke-miterlimit="10"
   width="23"
   height="23" />
	
		<rect
   id="PJ301_1_"
   x="56.382999"
   y="245.89101"
   display="inline"
   fill="none"
   stroke="#000000"
   stroke-miterlimit="10"
   width="23"
   height="23" />
	
		<rect
   id="PJ301_4_"
   x="9.3959999"
   y="281.591"
   display="inline"
   fill="none"
   stroke="#000000"
   stroke-miterlimit="10"
   width="23"
   height="23" />
	
		<rect
   id="PJ301_2_"
   x="56.382999"
   y="281.591"
   display="inline"
   fill="none"
   stroke="#000000"
   stroke-miterlimit="10"
   width="23"
   height="23" />
	
		<rect
   id="PJ301_6_"
   x="9.3959999"
   y="317.32401"
   display="inline"
   fill="none"
   stroke="#000000"
   stroke-miterlimit="10"
   width="23"
   height="23" />
	
		<rect
   id="PJ301_5_"
   x="56.382999"
   y="317.32401"
   display="inline"
   fill="none"
   stroke="#000000"
   stroke-miterlimit="10"
   width="23"
   height="23" />
	<rect
   id="CKSS"
   x="9.5"
   y="183.5"
   display="inline"
   fill="none"
   stroke="#000000"
   stroke-miterlimit="10"
   width="14"
   height="21" />
	
		<rect
   id="CKSS_1_"
   x="9.5"
   y="117.5"
   display="inline"
   fill="none"
   stroke="#000000"
   stroke-miterlimit="10"
   width="14"
   height="21" />
	
		<rect
   id="CKSS_2_"
   x="9.5"
   y="51.5"
   display="inline"
   fill="none"
   stroke="#000000"
   stroke-miterlimit="10"
   width="14"
   height="21" />
	
		<rect
   id="SmallLight"
   x="40.898998"
   y="253.89101"
   display="inline"
   fill="none"
   stroke="#000000"
   stroke-miterlimit="10"
   width="7"
   height="7" />
	
		<rect
   id="SmallLight_1_"
   x="40.898998"
   y="289.60699"
   display="inline"
   fill="none"
   stroke="#000000"
   stroke-miterlimit="10"
   width="7"
   height="7" />
	
		<rect
   id="SmallLight_2_"
   x="40.898998"
   y="325.32599"
   display="inline"
   fill="none"
   stroke="#000000"
   stroke-miterlimit="10"
   width="7"
   height="7" />
	
		<rect
   id="Rogan_2_"
   x="41.5"
   y="41.5"
   display="inline"
   fill="none"
   stroke="#000000"
   stroke-miterlimit="10"
   width="39"
   height="40" />
	
		<rect
   id="Rogan_1_"
   x="41.5"
   y="107.5"
   display="inline"
   fill="none"
   stroke="#000000"
   stroke-miterlimit="10"
   width="39"
   height="40" />
	
		<rect
   id="Rogan"
   x="41.5"
   y="173.5"
   display="inline"
   fill="none"
   stroke="#000000"
   stroke-miterlimit="10"
   width="39"
   height="40" />
</g>
</svg>
